<?xml version="1.0" encoding="UTF-8"?>
<svg xmlns="http://www.w3.org/2000/svg" xmlns:xlink="http://www.w3.org/1999/xlink" width="30pt" height="30pt" viewBox="0 0 30 30" version="1.1">
<g id="surface1">
<path style=" stroke:none;fill-rule:nonzero;fill:#fff;fill-opacity:1;" d="M 29.53125 15 C 29.53125 6.972656 23.027344 0.46875 15 0.46875 C 6.972656 0.46875 0.46875 6.972656 0.46875 15 C 0.46875 22.253906 5.78125 28.265625 12.730469 29.355469 L 12.730469 19.199219 L 9.039062 19.199219 L 9.039062 15 L 12.730469 15 L 12.730469 11.796875 C 12.730469 8.15625 14.898438 6.144531 18.21875 6.144531 C 19.808594 6.144531 21.472656 6.429688 21.472656 6.429688 L 21.472656 10.003906 L 19.636719 10.003906 C 17.832031 10.003906 17.269531 11.125 17.269531 12.273438 L 17.269531 15 L 21.300781 15 L 20.65625 19.199219 L 17.269531 19.199219 L 17.269531 29.355469 C 24.21875 28.265625 29.53125 22.253906 29.53125 15 Z M 29.53125 15 "/>
</g>
</svg>
