<?xml version="1.0" encoding="UTF-8"?>
<svg xmlns="http://www.w3.org/2000/svg" xmlns:xlink="http://www.w3.org/1999/xlink" width="26pt" height="29pt" viewBox="0 0 26 29" version="1.1">
<g id="surface1">
<path style=" stroke:none;fill-rule:nonzero;fill:#fff;fill-opacity:1;" d="M 13.003906 7.984375 C 9.316406 7.984375 6.335938 10.890625 6.335938 14.496094 C 6.335938 18.097656 9.316406 21.003906 13.003906 21.003906 C 16.695312 21.003906 19.675781 18.097656 19.675781 14.496094 C 19.675781 10.890625 16.695312 7.984375 13.003906 7.984375 Z M 13.003906 18.726562 C 10.621094 18.726562 8.671875 16.828125 8.671875 14.496094 C 8.671875 12.160156 10.613281 10.261719 13.003906 10.261719 C 15.398438 10.261719 17.339844 12.160156 17.339844 14.496094 C 17.339844 16.828125 15.390625 18.726562 13.003906 18.726562 Z M 21.503906 7.71875 C 21.503906 8.5625 20.804688 9.238281 19.945312 9.238281 C 19.082031 9.238281 18.390625 8.558594 18.390625 7.71875 C 18.390625 6.882812 19.089844 6.203125 19.945312 6.203125 C 20.804688 6.203125 21.503906 6.882812 21.503906 7.71875 Z M 25.917969 9.261719 C 25.820312 7.226562 25.34375 5.425781 23.816406 3.941406 C 22.296875 2.457031 20.453125 1.992188 18.367188 1.890625 C 16.222656 1.773438 9.785156 1.773438 7.636719 1.890625 C 5.558594 1.988281 3.714844 2.453125 2.1875 3.9375 C 0.660156 5.421875 0.191406 7.222656 0.0859375 9.253906 C -0.0351562 11.351562 -0.0351562 17.632812 0.0859375 19.726562 C 0.1875 21.761719 0.660156 23.5625 2.1875 25.046875 C 3.714844 26.53125 5.554688 26.996094 7.636719 27.097656 C 9.785156 27.214844 16.222656 27.214844 18.367188 27.097656 C 20.453125 27 22.296875 26.535156 23.816406 25.046875 C 25.339844 23.5625 25.8125 21.761719 25.917969 19.726562 C 26.039062 17.632812 26.039062 11.355469 25.917969 9.261719 Z M 23.144531 21.976562 C 22.691406 23.085938 21.816406 23.941406 20.671875 24.390625 C 18.960938 25.050781 14.898438 24.898438 13.003906 24.898438 C 11.113281 24.898438 7.046875 25.046875 5.339844 24.390625 C 4.203125 23.949219 3.324219 23.09375 2.867188 21.976562 C 2.1875 20.304688 2.34375 16.339844 2.34375 14.496094 C 2.34375 12.648438 2.195312 8.675781 2.867188 7.011719 C 3.320312 5.902344 4.195312 5.046875 5.339844 4.597656 C 7.050781 3.9375 11.113281 4.089844 13.003906 4.089844 C 14.898438 4.089844 18.964844 3.941406 20.671875 4.597656 C 21.808594 5.042969 22.6875 5.894531 23.144531 7.011719 C 23.824219 8.683594 23.667969 12.648438 23.667969 14.496094 C 23.667969 16.339844 23.824219 20.3125 23.144531 21.976562 Z M 23.144531 21.976562 "/>
</g>
</svg>
