<?xml version="1.0" encoding="UTF-8"?>
<svg xmlns="http://www.w3.org/2000/svg" xmlns:xlink="http://www.w3.org/1999/xlink" width="26pt" height="29pt" viewBox="0 0 26 29" version="1.1">
<g id="surface1">
<path style=" stroke:none;fill-rule:nonzero;fill:#fff;fill-opacity:1;" d="M 24.144531 1.8125 L 1.851562 1.8125 C 0.828125 1.8125 0 2.632812 0 3.640625 L 0 25.359375 C 0 26.367188 0.828125 27.1875 1.851562 27.1875 L 24.144531 27.1875 C 25.164062 27.1875 26 26.367188 26 25.359375 L 26 3.640625 C 26 2.632812 25.164062 1.8125 24.144531 1.8125 Z M 7.859375 23.5625 L 4.003906 23.5625 L 4.003906 11.453125 L 7.863281 11.453125 L 7.863281 23.5625 Z M 5.929688 9.796875 C 4.695312 9.796875 3.695312 8.820312 3.695312 7.617188 C 3.695312 6.417969 4.695312 5.4375 5.929688 5.4375 C 7.160156 5.4375 8.164062 6.417969 8.164062 7.617188 C 8.164062 8.824219 7.167969 9.796875 5.929688 9.796875 Z M 22.304688 23.5625 L 18.449219 23.5625 L 18.449219 17.671875 C 18.449219 16.265625 18.421875 14.460938 16.449219 14.460938 C 14.4375 14.460938 14.132812 15.988281 14.132812 17.570312 L 14.132812 23.5625 L 10.277344 23.5625 L 10.277344 11.453125 L 13.976562 11.453125 L 13.976562 13.105469 L 14.027344 13.105469 C 14.542969 12.15625 15.804688 11.152344 17.675781 11.152344 C 21.578125 11.152344 22.304688 13.660156 22.304688 16.925781 Z M 22.304688 23.5625 "/>
</g>
</svg>
