<?xml version="1.0" encoding="UTF-8"?>
<svg xmlns="http://www.w3.org/2000/svg" xmlns:xlink="http://www.w3.org/1999/xlink" width="16pt" height="20pt" viewBox="0 0 16 20" version="1.1">
<g id="surface1">
<path style=" stroke:none;fill-rule:nonzero;fill:rgb(0%,0%,0%);fill-opacity:1;" d="M 7.179688 19.785156 C 1.125 11.476562 0 10.625 0 7.570312 C 0 3.390625 3.582031 0 8 0 C 12.417969 0 16 3.390625 16 7.570312 C 16 10.625 14.875 11.476562 8.820312 19.785156 C 8.425781 20.328125 7.574219 20.328125 7.179688 19.785156 Z M 8 10.726562 C 9.839844 10.726562 11.332031 9.316406 11.332031 7.570312 C 11.332031 5.828125 9.839844 4.417969 8 4.417969 C 6.160156 4.417969 4.667969 5.828125 4.667969 7.570312 C 4.667969 9.316406 6.160156 10.726562 8 10.726562 Z M 8 10.726562 "/>
</g>
</svg>
