<?xml version="1.0" encoding="UTF-8"?>
<svg xmlns="http://www.w3.org/2000/svg" xmlns:xlink="http://www.w3.org/1999/xlink" width="33pt" height="30pt" viewBox="0 0 33 30" version="1.1">
<g id="surface1">
<path style=" stroke:none;fill-rule:nonzero;fill:#fff;fill-opacity:1;" d="M 31.492188 7.269531 C 31.128906 5.882812 30.070312 4.792969 28.722656 4.421875 C 26.285156 3.75 16.5 3.75 16.5 3.75 C 16.5 3.75 6.714844 3.75 4.277344 4.421875 C 2.929688 4.792969 1.871094 5.882812 1.507812 7.269531 C 0.855469 9.78125 0.855469 15.023438 0.855469 15.023438 C 0.855469 15.023438 0.855469 20.261719 1.507812 22.773438 C 1.871094 24.160156 2.929688 25.207031 4.277344 25.578125 C 6.714844 26.25 16.5 26.25 16.5 26.25 C 16.5 26.25 26.285156 26.25 28.722656 25.578125 C 30.070312 25.207031 31.128906 24.160156 31.492188 22.773438 C 32.144531 20.261719 32.144531 15.023438 32.144531 15.023438 C 32.144531 15.023438 32.144531 9.78125 31.492188 7.269531 Z M 13.300781 19.78125 L 13.300781 10.265625 L 21.476562 15.023438 Z M 13.300781 19.78125 "/>
</g>
</svg>
